<svg xmlns="http://www.w3.org/2000/svg" viewBox="0 0 100 100" width="100" height="100">
<title>Dig Wars</title>
<defs><radialGradient id="dwBg" cx=".45" cy=".4" r=".75"><stop offset="0" stop-color="#6b4c2a"/><stop offset=".6" stop-color="#3a2814"/><stop offset="1" stop-color="#1e140a"/></radialGradient></defs>
<rect x="2" y="2" width="96" height="96" rx="22" fill="url(#dwBg)" stroke="#8a6a3e" stroke-width="2.5"/>
<polygon points="51.9,15.5 73.0,11.7 92.2,19.4 96.1,36.6 94.2,55.8 78.8,55.8 63.4,50.1 48.1,50.1 44.2,38.6 50.0,29.0" fill="#000" opacity=".35"/>
<polygon points="50.0,11.7 71.1,7.8 75.0,23.2 59.6,30.9 48.1,25.1" fill="#7a746c" stroke="#1b1510" stroke-width="3.0" stroke-linejoin="round"/>
<polygon points="71.1,7.8 90.3,15.5 94.2,32.8 78.8,36.6 75.0,23.2" fill="#6b6660" stroke="#1b1510" stroke-width="3.0" stroke-linejoin="round"/>
<polygon points="48.1,25.1 59.6,30.9 61.5,46.2 46.2,46.2 42.3,34.7" fill="#5d5852" stroke="#1b1510" stroke-width="3.0" stroke-linejoin="round"/>
<polygon points="78.8,36.6 94.2,32.8 92.2,52.0 76.9,52.0" fill="#827b72" stroke="#1b1510" stroke-width="3.0" stroke-linejoin="round"/>
<polygon points="59.6,30.9 75.0,23.2 78.8,36.6 76.9,52.0 61.5,46.2" fill="#2a2420" stroke="#1b1510" stroke-width="3.0" stroke-linejoin="round"/>
<polygon points="50.0,11.7 71.1,7.8 90.3,15.5 94.2,32.8 92.2,52.0 76.9,52.0 61.5,46.2 46.2,46.2 42.3,34.7 48.1,25.1" fill="none" stroke="#1b1510" stroke-width="4.2" stroke-linejoin="round"/>
<polygon points="40.4,52.0 46.2,49.1 44.2,56.8" fill="#6b6660" stroke="#1b1510" stroke-width="2.3" stroke-linejoin="round"/>
<polygon points="86.5,59.7 93.2,57.8 90.3,65.4" fill="#6b6660" stroke="#1b1510" stroke-width="2.3" stroke-linejoin="round"/>
<polygon points="34.6,32.8 39.4,29.0 40.4,35.7" fill="#6b6660" stroke="#1b1510" stroke-width="2.3" stroke-linejoin="round"/>
<polygon points="55.4,24.6 65.0,16.7 80.5,20.6 85.2,32.0 65.3,48.4" fill="#35c26b" stroke="#1b1510" stroke-width="4.2" stroke-linejoin="round"/>
<polygon points="62.6,26.4 67.7,22.3 75.5,24.2 78.1,30.3 67.3,40.3" fill="#9ff0bf" opacity=".85"/>
<polygon points="62.6,26.4 67.7,22.3 70.3,28.3 67.3,40.3" fill="#fff" opacity=".6"/>
<polygon points="23.3,69.5 48.4,44.4 59.6,55.5 34.4,80.6" fill="#a3a3a3" stroke="#1b1510" stroke-width="4.2" stroke-linejoin="round"/>
<circle cx="28.9" cy="75.0" r="19.2" fill="#00b2e1" stroke="#1b1510" stroke-width="4.2"/>
<circle cx="22.2" cy="67.4" r="5.3" fill="#fff" opacity=".35"/>
</svg>